<svg width="400" height="375" viewBox="0 0 400 375" fill="none" xmlns="http://www.w3.org/2000/svg">
<path d="M57.6164 104.696L59.3029 108.1L63.0714 108.652L60.3439 111.307L60.9894 115.054L57.6164 113.285L54.2539 115.054L54.8994 111.307L52.1719 108.652L55.9404 108.1L57.6164 104.696Z" fill="#EBEBEB"/>
<path d="M394.544 265.254L396.231 268.668L399.999 269.22L397.272 271.864L397.917 275.622L394.544 273.853L391.182 275.622L391.827 271.864L389.1 269.22L392.868 268.668L394.544 265.254Z" fill="#F5F5F5"/>
<path d="M327.812 364.245L329.498 367.649L333.256 368.201L330.529 370.855L331.174 374.603L327.812 372.833L324.449 374.603L325.084 370.855L322.367 368.201L326.125 367.649L327.812 364.245Z" fill="#F5F5F5"/>
<path d="M175.137 44.2124L175.762 45.4825L177.167 45.6907C177.246 45.7009 177.32 45.7333 177.38 45.784C177.441 45.8348 177.486 45.9017 177.51 45.9771C177.534 46.0524 177.536 46.1331 177.516 46.2096C177.496 46.2861 177.454 46.3552 177.396 46.409L176.355 47.398L176.595 48.7929C176.607 48.8706 176.598 48.9501 176.568 49.0227C176.538 49.0954 176.488 49.1583 176.425 49.2046C176.361 49.2509 176.286 49.2788 176.208 49.2851C176.129 49.2915 176.051 49.2761 175.981 49.2406L174.731 48.5743L173.482 49.2406C173.412 49.2761 173.333 49.2915 173.255 49.2851C173.177 49.2788 173.102 49.2509 173.038 49.2046C172.975 49.1583 172.925 49.0954 172.895 49.0227C172.865 48.9501 172.856 48.8706 172.868 48.7929L173.097 47.398L172.056 46.409C171.998 46.3546 171.956 46.2845 171.937 46.2072C171.917 46.1299 171.92 46.0486 171.945 45.973C171.97 45.8973 172.017 45.8305 172.079 45.7805C172.141 45.7304 172.216 45.6993 172.295 45.6907L173.69 45.4825L174.315 44.2124C174.34 44.1226 174.394 44.0434 174.468 43.987C174.542 43.9305 174.633 43.9 174.726 43.9C174.819 43.9 174.91 43.9305 174.984 43.987C175.059 44.0434 175.112 44.1226 175.137 44.2124Z" fill="#EBEBEB"/>
<path d="M3.20156 348.036L3.82618 349.296L5.22116 349.504C5.30035 349.515 5.37489 349.548 5.43629 349.599C5.49768 349.65 5.54346 349.718 5.56842 349.794C5.59337 349.87 5.59649 349.951 5.57743 350.029C5.55837 350.106 5.51789 350.177 5.46059 350.233L4.41957 351.211L4.659 352.606C4.6713 352.684 4.66192 352.763 4.63189 352.836C4.60186 352.909 4.55235 352.972 4.48883 353.018C4.4253 353.064 4.35022 353.092 4.27187 353.098C4.19352 353.105 4.11494 353.089 4.0448 353.054L2.79556 352.398L1.54633 353.054C1.47619 353.089 1.39761 353.105 1.31926 353.098C1.24091 353.092 1.16583 353.064 1.1023 353.018C1.03878 352.972 0.989268 352.909 0.95924 352.836C0.929212 352.763 0.919829 352.684 0.932125 352.606L1.17156 351.211L0.130537 350.233C0.0734345 350.178 0.0328053 350.108 0.0132162 350.031C-0.00637277 349.954 -0.00414772 349.873 0.0196377 349.798C0.0434231 349.722 0.0878278 349.654 0.147872 349.602C0.207916 349.551 0.281221 349.516 0.359561 349.504L1.75454 349.296L2.38956 348.036C2.41738 347.95 2.47166 347.876 2.5446 347.823C2.61753 347.77 2.70539 347.741 2.79556 347.741C2.88574 347.741 2.9736 347.77 3.04654 347.823C3.11947 347.876 3.17374 347.95 3.20156 348.036Z" fill="#F5F5F5"/>
<path d="M31.279 30.8352L31.9036 32.1053L33.309 32.3031C33.3873 32.3156 33.4606 32.3497 33.5206 32.4015C33.5807 32.4534 33.6251 32.5209 33.6489 32.5966C33.6727 32.6723 33.6749 32.7531 33.6553 32.83C33.6357 32.9068 33.5951 32.9767 33.538 33.0318L32.497 34.0728L32.7364 35.4574C32.753 35.536 32.7466 35.6177 32.7178 35.6927C32.689 35.7677 32.6392 35.8328 32.5743 35.8801C32.5093 35.9274 32.4321 35.955 32.3519 35.9594C32.2717 35.9638 32.1919 35.9449 32.1222 35.905L30.873 35.2492L29.6237 35.905C29.554 35.9449 29.4742 35.9638 29.394 35.9594C29.3138 35.955 29.2366 35.9274 29.1716 35.8801C29.1067 35.8328 29.0569 35.7677 29.0281 35.6927C28.9993 35.6177 28.9929 35.536 29.0095 35.4574L29.2385 34.0728L28.1975 33.0318C28.1402 32.976 28.0997 32.9053 28.0807 32.8277C28.0616 32.7501 28.0647 32.6686 28.0897 32.5927C28.1146 32.5167 28.1604 32.4493 28.2218 32.3981C28.2832 32.3469 28.3578 32.314 28.4369 32.3031L29.8319 32.1053L30.4982 30.8352C30.5316 30.7596 30.5863 30.6953 30.6556 30.6501C30.7249 30.605 30.8059 30.581 30.8886 30.581C30.9713 30.581 31.0522 30.605 31.1215 30.6501C31.1908 30.6953 31.2455 30.7596 31.279 30.8352Z" fill="#EBEBEB"/>
<path d="M29.5933 281.744C29.5954 282.018 29.5159 282.287 29.365 282.516C29.2142 282.745 28.9987 282.924 28.7458 283.03C28.493 283.137 28.2143 283.165 27.9451 283.113C27.6758 283.061 27.4281 282.93 27.2335 282.737C27.0388 282.543 26.9059 282.297 26.8516 282.028C26.7973 281.759 26.8241 281.48 26.9286 281.227C27.0331 280.973 27.2105 280.756 27.4385 280.603C27.6664 280.451 27.9345 280.369 28.2087 280.369C28.5742 280.369 28.9248 280.514 29.1841 280.771C29.4435 281.029 29.5906 281.378 29.5933 281.744Z" fill="#EBEBEB"/>
<path d="M226.908 108.485C226.91 108.76 226.83 109.028 226.68 109.257C226.529 109.487 226.313 109.666 226.06 109.772C225.807 109.878 225.529 109.907 225.259 109.855C224.99 109.803 224.743 109.672 224.548 109.479C224.353 109.285 224.22 109.039 224.166 108.77C224.112 108.501 224.139 108.222 224.243 107.968C224.348 107.715 224.525 107.498 224.753 107.345C224.981 107.193 225.249 107.111 225.523 107.111C225.705 107.11 225.884 107.144 226.052 107.213C226.22 107.281 226.373 107.382 226.502 107.51C226.63 107.638 226.732 107.79 226.802 107.957C226.872 108.125 226.908 108.304 226.908 108.485Z" fill="#EBEBEB"/>
<path d="M155.119 31.9804C155.119 32.2542 155.038 32.5219 154.885 32.7496C154.733 32.9773 154.517 33.1547 154.264 33.2595C154.011 33.3643 153.733 33.3917 153.464 33.3383C153.195 33.2849 152.949 33.153 152.755 32.9594C152.561 32.7658 152.43 32.5191 152.376 32.2505C152.323 31.9819 152.35 31.7035 152.455 31.4505C152.56 31.1975 152.737 30.9813 152.965 30.8291C153.193 30.677 153.46 30.5958 153.734 30.5958C154.101 30.5985 154.451 30.7453 154.71 31.0043C154.969 31.2634 155.116 31.614 155.119 31.9804Z" fill="#F5F5F5"/>
<path d="M157.31 369.423C161.423 368.452 163.97 364.331 162.999 360.218C162.028 356.105 157.907 353.558 153.795 354.529C149.682 355.499 147.135 359.621 148.105 363.733C149.076 367.846 153.197 370.393 157.31 369.423Z" fill="#F0F0F0"/>
<path d="M152.922 357.499C151.355 357.496 149.827 357.992 148.56 358.915C147.913 360.399 147.755 362.05 148.107 363.631C148.459 365.211 149.304 366.638 150.52 367.707C151.736 368.776 153.26 369.431 154.873 369.578C156.485 369.725 158.102 369.355 159.491 368.524C160.106 367.386 160.415 366.109 160.388 364.816C160.361 363.524 159.998 362.261 159.336 361.15C158.674 360.04 157.734 359.121 156.61 358.482C155.486 357.844 154.215 357.509 152.922 357.509V357.499Z" fill="#E6E6E6"/>
<path d="M93.6648 228.984H30.3184V200.387L93.6648 125.079H123.98V202.011H139.689V228.984H123.98V252.387H93.6648V228.984ZM93.6648 202.011V162.619L60.1854 202.011H93.6648Z" fill="#114FD9"/>
<path d="M150.525 189.29C150.525 165.492 154.807 148.836 163.372 139.321C171.936 129.806 184.987 125.052 202.525 125.059C210.943 125.059 217.859 126.1 223.272 128.182C228.19 129.954 232.693 132.714 236.504 136.291C239.716 139.358 242.437 142.901 244.572 146.795C246.684 150.861 248.276 155.177 249.308 159.642C251.662 169.178 252.837 178.968 252.806 188.79C252.806 211.499 248.965 228.117 241.282 238.645C233.599 249.173 220.368 254.441 201.588 254.448C191.053 254.448 182.54 252.768 176.051 249.409C169.51 245.996 164 240.896 160.092 234.637C157.073 230.029 154.724 223.724 153.045 215.722C151.301 207.021 150.457 198.164 150.525 189.29ZM185.025 189.373C185.025 205.336 186.43 216.221 189.241 222.03C192.052 227.839 196.136 230.758 201.494 230.785C203.194 230.804 204.881 230.486 206.458 229.848C208.034 229.21 209.468 228.265 210.676 227.069C213.271 224.591 215.18 220.677 216.402 215.326C217.623 209.975 218.234 201.647 218.234 190.341C218.234 173.727 216.825 162.556 214.007 156.831C211.189 151.105 206.963 148.246 201.327 148.253C195.581 148.253 191.417 151.171 188.835 157.008C186.253 162.844 184.983 173.633 185.025 189.373Z" fill="#114FD9"/>
<path d="M326.917 228.984H263.57V200.387L326.917 125.079H357.231V202.011H372.993V228.984H357.231V252.387H326.917V228.984ZM326.917 202.011V162.619L293.448 202.011H326.917Z" fill="#114FD9"/>
<g opacity="0.3">
<path d="M149.175 81.1377C149.175 81.5231 149.06 81.8999 148.846 82.2203C148.632 82.5406 148.327 82.7901 147.971 82.9372C147.614 83.0842 147.222 83.1222 146.844 83.0462C146.466 82.9702 146.12 82.7838 145.848 82.5105C145.576 82.2372 145.391 81.8893 145.317 81.511C145.243 81.1327 145.283 80.741 145.432 80.3855C145.581 80.0299 145.833 79.7266 146.154 79.5139C146.476 79.3013 146.853 79.1889 147.238 79.1909C147.494 79.1909 147.746 79.2414 147.982 79.3393C148.217 79.4373 148.431 79.5808 148.611 79.7618C148.791 79.9427 148.934 80.1573 149.03 80.3935C149.127 80.6296 149.176 80.8825 149.175 81.1377Z" fill="#407BFF"/>
<path d="M15.8917 155.915C16.6507 155.915 17.2659 155.299 17.2659 154.54C17.2659 153.782 16.6507 153.166 15.8917 153.166C15.1328 153.166 14.5176 153.782 14.5176 154.54C14.5176 155.299 15.1328 155.915 15.8917 155.915Z" fill="#407BFF"/>
<path d="M242.921 356.593C244.007 356.593 244.888 355.712 244.888 354.626C244.888 353.539 244.007 352.658 242.921 352.658C241.834 352.658 240.953 353.539 240.953 354.626C240.953 355.712 241.834 356.593 242.921 356.593Z" fill="#407BFF"/>
<path d="M290.232 276.538C290.991 276.538 291.606 275.923 291.606 275.164C291.606 274.405 290.991 273.79 290.232 273.79C289.473 273.79 288.857 274.405 288.857 275.164C288.857 275.923 289.473 276.538 290.232 276.538Z" fill="#407BFF"/>
<path d="M381.502 29.0863C381.502 29.3581 381.422 29.6237 381.271 29.8497C381.12 30.0757 380.905 30.2518 380.654 30.3558C380.403 30.4598 380.127 30.4871 379.86 30.434C379.593 30.381 379.349 30.2501 379.156 30.058C378.964 29.8658 378.833 29.6209 378.78 29.3544C378.727 29.0878 378.755 28.8115 378.859 28.5604C378.963 28.3093 379.139 28.0947 379.365 27.9437C379.591 27.7927 379.856 27.7121 380.128 27.7121C380.493 27.7121 380.842 27.8569 381.1 28.1146C381.357 28.3723 381.502 28.7218 381.502 29.0863Z" fill="#407BFF"/>
<path d="M119.766 1.37416C119.766 1.64594 119.685 1.91162 119.534 2.1376C119.383 2.36357 119.169 2.5397 118.918 2.64371C118.667 2.74772 118.39 2.77493 118.124 2.72191C117.857 2.66889 117.612 2.53801 117.42 2.34583C117.228 2.15365 117.097 1.9088 117.044 1.64224C116.991 1.37568 117.018 1.09938 117.122 0.848289C117.226 0.597195 117.402 0.382579 117.628 0.231585C117.854 0.0805905 118.12 0 118.392 0C118.755 0.00272376 119.103 0.148375 119.36 0.405492C119.618 0.662608 119.763 1.01055 119.766 1.37416Z" fill="#407BFF"/>
<path d="M229.023 73.4757C229.782 73.4757 230.397 72.8605 230.397 72.1015C230.397 71.3426 229.782 70.7274 229.023 70.7274C228.264 70.7274 227.648 71.3426 227.648 72.1015C227.648 72.8605 228.264 73.4757 229.023 73.4757Z" fill="#407BFF"/>
</g>
<path d="M86.9534 73.4861C99.5504 73.4861 109.762 63.2742 109.762 50.6772C109.762 38.0802 99.5504 27.8683 86.9534 27.8683C74.3564 27.8683 64.1445 38.0802 64.1445 50.6772C64.1445 63.2742 74.3564 73.4861 86.9534 73.4861Z" fill="#407BFF"/>
<path opacity="0.7" d="M86.9534 73.4861C99.5504 73.4861 109.762 63.2742 109.762 50.6772C109.762 38.0802 99.5504 27.8683 86.9534 27.8683C74.3564 27.8683 64.1445 38.0802 64.1445 50.6772C64.1445 63.2742 74.3564 73.4861 86.9534 73.4861Z" fill="white"/>
<path opacity="0.2" d="M79.0922 33.469C75.9859 33.4595 72.9106 34.0866 70.0561 35.3117C66.5478 39.1675 64.4655 44.1083 64.1556 49.3121C63.8457 54.516 65.3269 59.669 68.3528 63.914C71.3787 68.1589 75.7667 71.2399 80.787 72.6443C85.8073 74.0487 91.1571 73.6918 95.9464 71.6331C98.9157 68.3608 100.871 64.2967 101.575 59.9344C102.279 55.5721 101.701 51.0993 99.9123 47.059C98.1231 43.0187 95.1994 39.5847 91.4961 37.1742C87.7928 34.7636 83.4693 33.4801 79.0505 33.4794L79.0922 33.469Z" fill="#407BFF"/>
<path opacity="0.2" d="M76.8204 39.4966C76.8204 39.9084 76.6982 40.3109 76.4695 40.6533C76.2407 40.9957 75.9155 41.2626 75.5351 41.4202C75.1546 41.5778 74.736 41.619 74.3321 41.5387C73.9282 41.4583 73.5572 41.26 73.2661 40.9688C72.9749 40.6777 72.7766 40.3067 72.6963 39.9028C72.6159 39.4989 72.6572 39.0803 72.8147 38.6998C72.9723 38.3194 73.2392 37.9942 73.5816 37.7654C73.924 37.5367 74.3265 37.4146 74.7383 37.4146C75.2905 37.4146 75.8201 37.6339 76.2105 38.0244C76.601 38.4148 76.8204 38.9444 76.8204 39.4966Z" fill="#407BFF"/>
<path opacity="0.2" d="M101.35 37.4145C101.35 37.8263 101.228 38.2288 100.999 38.5712C100.77 38.9136 100.445 39.1805 100.064 39.3381C99.6839 39.4957 99.2653 39.5369 98.8614 39.4566C98.4575 39.3762 98.0865 39.1779 97.7954 38.8867C97.5042 38.5956 97.3059 38.2246 97.2256 37.8207C97.1452 37.4168 97.1864 36.9982 97.344 36.6177C97.5016 36.2373 97.7685 35.9121 98.1109 35.6833C98.4533 35.4546 98.8558 35.3325 99.2676 35.3325C99.8198 35.3325 100.349 35.5518 100.74 35.9423C101.13 36.3327 101.35 36.8623 101.35 37.4145Z" fill="#407BFF"/>
<path opacity="0.2" d="M97.1866 52.2804C97.1866 52.9557 96.9863 53.6159 96.6111 54.1774C96.2359 54.7389 95.7026 55.1766 95.0787 55.435C94.4548 55.6935 93.7682 55.7611 93.1058 55.6293C92.4435 55.4976 91.8351 55.1724 91.3575 54.6948C90.88 54.2173 90.5548 53.6089 90.423 52.9465C90.2913 52.2842 90.3589 51.5976 90.6173 50.9737C90.8758 50.3498 91.3134 49.8165 91.875 49.4413C92.4365 49.0661 93.0967 48.8658 93.772 48.8658C94.6776 48.8658 95.5461 49.2256 96.1865 49.8659C96.8268 50.5063 97.1866 51.3748 97.1866 52.2804Z" fill="#407BFF"/>
<path opacity="0.2" d="M86.3381 62.014C86.3381 62.9158 86.0707 63.7974 85.5697 64.5472C85.0687 65.297 84.3566 65.8815 83.5234 66.2266C82.6902 66.5717 81.7734 66.662 80.8889 66.4861C80.0044 66.3101 79.1919 65.8759 78.5543 65.2382C77.9166 64.6005 77.4823 63.788 77.3064 62.9035C77.1304 62.019 77.2207 61.1022 77.5658 60.2691C77.911 59.4359 78.4954 58.7238 79.2452 58.2227C79.9951 57.7217 80.8766 57.4543 81.7784 57.4543C82.9878 57.4543 84.1475 57.9347 85.0027 58.7898C85.8578 59.6449 86.3381 60.8047 86.3381 62.014Z" fill="#407BFF"/>
<path d="M357.275 325.806C359.815 315.046 353.15 304.264 342.39 301.724C331.629 299.184 320.847 305.849 318.308 316.609C315.768 327.37 322.432 338.151 333.193 340.691C343.953 343.231 354.735 336.567 357.275 325.806Z" fill="#407BFF"/>
<path opacity="0.3" d="M357.275 325.806C359.815 315.046 353.15 304.264 342.39 301.724C331.629 299.184 320.847 305.849 318.308 316.609C315.768 327.37 322.432 338.151 333.193 340.691C343.953 343.231 354.735 336.567 357.275 325.806Z" fill="white"/>
<path opacity="0.4" d="M350.437 305.708C345.999 304.369 341.234 304.612 336.955 306.395C332.676 308.179 329.15 311.394 326.978 315.489C324.807 319.584 324.124 324.306 325.048 328.849C325.971 333.392 328.443 337.473 332.042 340.395C333.908 340.962 335.848 341.25 337.798 341.249C341.931 341.248 345.963 339.968 349.339 337.584C352.715 335.201 355.271 331.831 356.656 327.937C358.041 324.043 358.186 319.816 357.073 315.836C355.959 311.856 353.641 308.318 350.437 305.708Z" fill="#407BFF"/>
<path d="M318.683 327.216C297.311 337.272 313.249 345.028 343.366 334.201C371.255 324.176 381.884 311.538 356.899 315.462C358.242 320.72 323.316 334.326 318.683 327.216Z" fill="#407BFF"/>
<path opacity="0.2" d="M350.198 125.079C322.205 143.995 285.967 168.98 275.962 228.984H273.828C283.562 169.646 318.478 144.068 346.481 125.079H350.198Z" fill="black"/>
<path d="M205.391 312.922C187.694 312.922 170.194 304.938 161.668 291.904C156.411 283.846 150.3 266.971 168.497 244.454L170.111 245.766C157.244 261.693 154.87 277.673 163.417 290.769C173.827 306.697 198.385 314.713 219.351 309.008C240.828 303.168 253.861 284.492 255.121 257.769C259.42 166.356 307.984 138.196 343.442 117.636C365.48 104.863 381.398 95.6392 377.9 76.1616C377.41 73.4653 376.338 71.6019 374.6 70.4567C370.071 67.469 361.223 69.5406 350.979 71.9246C330.877 76.6092 303.352 83.0219 286.956 55.1328L288.757 54.0918C304.372 80.6692 329.95 74.7041 350.51 69.9154C361.222 67.4273 370.467 65.2724 375.745 68.7391C377.983 70.2069 379.357 72.5284 379.909 75.818C383.667 96.7218 366.376 106.757 344.462 119.458C309.411 139.779 261.419 167.605 257.172 257.914C255.86 285.606 242.264 304.979 219.861 311.069C215.142 312.326 210.275 312.949 205.391 312.922Z" fill="#407BFF"/>
<path opacity="0.2" d="M205.391 312.922C187.694 312.922 170.194 304.938 161.668 291.904C156.411 283.846 150.3 266.971 168.497 244.454L170.111 245.766C157.244 261.693 154.87 277.673 163.417 290.769C173.827 306.697 198.385 314.713 219.351 309.008C240.828 303.168 253.861 284.492 255.121 257.769C259.42 166.356 307.984 138.196 343.442 117.636C365.48 104.863 381.398 95.6392 377.9 76.1616C377.41 73.4653 376.338 71.6019 374.6 70.4567C370.071 67.469 361.223 69.5406 350.979 71.9246C330.877 76.6092 303.352 83.0219 286.956 55.1328L288.757 54.0918C304.372 80.6692 329.95 74.7041 350.51 69.9154C361.222 67.4273 370.467 65.2724 375.745 68.7391C377.983 70.2069 379.357 72.5284 379.909 75.818C383.667 96.7218 366.376 106.757 344.462 119.458C309.411 139.779 261.419 167.605 257.172 257.914C255.86 285.606 242.264 304.979 219.861 311.069C215.142 312.326 210.275 312.949 205.391 312.922Z" fill="white"/>
<path d="M265.521 30.5229C270.318 30.5506 275.084 31.2981 279.659 32.7403C279.659 32.7403 291.11 52.2804 292.463 56.7568C291.984 61.1708 284.541 68.4059 284.541 68.4059L265.521 30.5229Z" fill="#407BFF"/>
<path opacity="0.3" d="M265.521 30.5229C270.318 30.5506 275.084 31.2981 279.659 32.7403C279.659 32.7403 291.11 52.2804 292.463 56.7568C291.984 61.1708 284.541 68.4059 284.541 68.4059L265.521 30.5229Z" fill="white"/>
<path d="M299.438 125.392C295.028 120 291.007 114.301 287.404 108.34C286.529 106.834 285.7 105.3 284.916 103.738C284.468 102.853 284.041 101.969 283.625 101.073C283.078 100.202 282.654 99.2598 282.365 98.273C281.116 85.0832 285.634 75.3704 281.324 64.7831L264.168 71.4874C264.168 71.4874 265.625 90.3508 268.957 101.677C271.039 108.683 275.703 114.742 280.21 120.353C281.616 122.102 282.969 123.903 284.374 125.662C285.78 127.422 287.195 128.848 288.538 130.503C290.568 133.012 291.235 135.417 289.704 138.373L289.444 138.842C289.007 139.612 291.047 140.487 292.338 138.842C294.42 136.156 294.129 136.322 295.94 134.032C297.044 132.648 298.303 131.138 299.396 129.868C299.924 129.244 300.216 128.455 300.224 127.637C300.232 126.82 299.954 126.026 299.438 125.392Z" fill="#407BFF"/>
<path opacity="0.7" d="M299.438 125.392C295.028 120 291.007 114.301 287.404 108.34C286.529 106.834 285.7 105.3 284.916 103.738C284.468 102.853 284.041 101.969 283.625 101.073C283.078 100.202 282.654 99.2598 282.365 98.273C281.116 85.0832 285.634 75.3704 281.324 64.7831L264.168 71.4874C264.168 71.4874 265.625 90.3508 268.957 101.677C271.039 108.683 275.703 114.742 280.21 120.353C281.616 122.102 282.969 123.903 284.374 125.662C285.78 127.422 287.195 128.848 288.538 130.503C290.568 133.012 291.235 135.417 289.704 138.373L289.444 138.842C289.007 139.612 291.047 140.487 292.338 138.842C294.42 136.156 294.129 136.322 295.94 134.032C297.044 132.648 298.303 131.138 299.396 129.868C299.924 129.244 300.216 128.455 300.224 127.637C300.232 126.82 299.954 126.026 299.438 125.392Z" fill="white"/>
<path opacity="0.3" d="M295.242 119.968C292.519 122.886 289.498 125.51 286.227 127.796C286.674 128.296 287.111 128.838 287.559 129.316C290.834 127.104 293.809 124.476 296.408 121.498L295.242 119.968Z" fill="#407BFF"/>
<path opacity="0.3" d="M299.438 125.392L299.313 125.246C298.512 126.165 298.046 127.328 297.991 128.546C297.924 129.381 298.06 130.221 298.387 130.992L299.376 129.816C299.893 129.198 300.181 128.421 300.193 127.615C300.204 126.809 299.938 126.024 299.438 125.392Z" fill="#407BFF"/>
<path d="M261.441 43.0153C259.581 45.8001 257.35 48.3183 254.81 50.5003C253.401 51.7145 251.857 52.7624 250.208 53.6233C249.342 54.0671 248.445 54.4464 247.523 54.7581L246.815 54.9871L246.586 55.0495L246.096 55.1849C245.795 55.2564 245.489 55.3051 245.18 55.3306C244.302 55.3978 243.419 55.3168 242.567 55.0912C241.494 54.7864 240.465 54.3419 239.507 53.7691C238.736 53.3185 237.989 52.8286 237.268 52.3012C235.967 51.3331 234.722 50.2903 233.542 49.1782C231.264 47.0206 229.175 44.6733 227.295 42.1616C226.934 41.6723 226.754 41.072 226.787 40.4644C226.821 39.8567 227.065 39.2797 227.478 38.833C227.892 38.3864 228.448 38.098 229.051 38.0177C229.655 37.9374 230.267 38.0701 230.783 38.3931H230.866C233.323 39.9547 235.801 41.5995 238.216 43.0673C239.444 43.7856 240.631 44.5144 241.807 45.0765C242.344 45.3577 242.897 45.6079 243.463 45.826C243.815 45.9816 244.192 46.0732 244.576 46.0967C244.639 46.0967 244.576 46.0238 244.191 46.0343C244.07 46.027 243.948 46.027 243.827 46.0343L243.598 46.0863L243.941 45.9093C244.404 45.6604 244.852 45.3859 245.284 45.0869C246.216 44.4301 247.087 43.6916 247.887 42.8799C249.706 40.974 251.409 38.9612 252.988 36.8524C253.853 35.8845 255.049 35.2748 256.34 35.143C257.631 35.0111 258.926 35.3665 259.968 36.1396C261.011 36.9126 261.728 38.0474 261.977 39.3214C262.226 40.5954 261.991 41.9165 261.316 43.0257L261.441 43.0153Z" fill="#407BFF"/>
<path opacity="0.7" d="M261.441 43.0153C259.581 45.8001 257.35 48.3183 254.81 50.5003C253.401 51.7145 251.857 52.7624 250.208 53.6233C249.342 54.0671 248.445 54.4464 247.523 54.7581L246.815 54.9871L246.586 55.0495L246.096 55.1849C245.795 55.2564 245.489 55.3051 245.18 55.3306C244.302 55.3978 243.419 55.3168 242.567 55.0912C241.494 54.7864 240.465 54.3419 239.507 53.7691C238.736 53.3185 237.989 52.8286 237.268 52.3012C235.967 51.3331 234.722 50.2903 233.542 49.1782C231.264 47.0206 229.175 44.6733 227.295 42.1616C226.934 41.6723 226.754 41.072 226.787 40.4644C226.821 39.8567 227.065 39.2797 227.478 38.833C227.892 38.3864 228.448 38.098 229.051 38.0177C229.655 37.9374 230.267 38.0701 230.783 38.3931H230.866C233.323 39.9547 235.801 41.5995 238.216 43.0673C239.444 43.7856 240.631 44.5144 241.807 45.0765C242.344 45.3577 242.897 45.6079 243.463 45.826C243.815 45.9816 244.192 46.0732 244.576 46.0967C244.639 46.0967 244.576 46.0238 244.191 46.0343C244.07 46.027 243.948 46.027 243.827 46.0343L243.598 46.0863L243.941 45.9093C244.404 45.6604 244.852 45.3859 245.284 45.0869C246.216 44.4301 247.087 43.6916 247.887 42.8799C249.706 40.974 251.409 38.9612 252.988 36.8524C253.853 35.8845 255.049 35.2748 256.34 35.143C257.631 35.0111 258.926 35.3665 259.968 36.1396C261.011 36.9126 261.728 38.0474 261.977 39.3214C262.226 40.5954 261.991 41.9165 261.316 43.0257L261.441 43.0153Z" fill="white"/>
<path d="M223.391 36.1653L224.609 38.2473C224.609 38.2473 225.535 40.9748 227.399 41.4745L232.458 39.8401L232.198 39.4133C231.552 38.4347 231.625 36.5297 231.844 34.9473C232.062 33.3649 231.25 33.3129 230.647 33.7085C230.219 34.2007 229.918 34.7906 229.772 35.4262C229.524 35.0824 229.249 34.7587 228.95 34.458L227.409 32.9173C227.086 32.6014 226.655 32.4193 226.203 32.4078C225.751 32.3962 225.312 32.5559 224.973 32.8548L223.724 33.9687C223.427 34.2428 223.233 34.6095 223.172 35.0087C223.112 35.4078 223.189 35.8156 223.391 36.1653Z" fill="#407BFF"/>
<path opacity="0.7" d="M223.391 36.1653L224.609 38.2473C224.609 38.2473 225.535 40.9748 227.399 41.4745L232.458 39.8401L232.198 39.4133C231.552 38.4347 231.625 36.5297 231.844 34.9473C232.062 33.3649 231.25 33.3129 230.647 33.7085C230.219 34.2007 229.918 34.7906 229.772 35.4262C229.524 35.0824 229.249 34.7587 228.95 34.458L227.409 32.9173C227.086 32.6014 226.655 32.4193 226.203 32.4078C225.751 32.3962 225.312 32.5559 224.973 32.8548L223.724 33.9687C223.427 34.2428 223.233 34.6095 223.172 35.0087C223.112 35.4078 223.189 35.8156 223.391 36.1653Z" fill="white"/>
<path d="M270.631 28.6699C265.02 30.1574 259.644 32.4246 254.662 35.4054C253.885 35.8918 253.275 36.6042 252.914 37.4471C252.553 38.2899 252.458 39.223 252.643 40.1212C254.652 49.9485 259.222 63.1071 264.156 71.4874L287.173 61.962C287.33 57.902 281.739 44.7642 276.045 32.0637C275.025 29.7838 273.057 28.0869 270.631 28.6699Z" fill="#407BFF"/>
<path opacity="0.8" d="M270.631 28.6699C265.02 30.1574 259.644 32.4246 254.662 35.4054C253.885 35.8918 253.275 36.6042 252.914 37.4471C252.553 38.2899 252.458 39.223 252.643 40.1212C254.652 49.9485 259.222 63.1071 264.156 71.4874L287.173 61.962C287.33 57.902 281.739 44.7642 276.045 32.0637C275.025 29.7838 273.057 28.0869 270.631 28.6699Z" fill="white"/>
<path opacity="0.3" d="M279.617 40.1108L275.047 38.5805C276.088 41.2559 279.763 44.6393 282.334 46.6276C281.501 44.5456 280.575 42.3594 279.617 40.1108Z" fill="#407BFF"/>
<path d="M269.122 18.3638C267.217 14.741 263.105 12.9192 258.17 13.3252C254.006 13.6791 250.321 17.9265 250.758 20.2168C251.195 22.5071 254.693 23.4856 255.359 24.2768L252.476 26.3589C252.134 26.6054 251.846 26.9186 251.629 27.2794C251.411 27.6403 251.269 28.0414 251.211 28.4586C251.152 28.8758 251.179 29.3005 251.289 29.7072C251.399 30.1139 251.59 30.494 251.851 30.8249C253.069 32.3656 254.672 33.9479 255.599 35.1139C263.573 34.9057 269.476 31.8659 271.61 28.9406C270.808 25.2345 270.975 21.9657 269.122 18.3638Z" fill="#407BFF"/>
<path opacity="0.8" d="M269.122 18.3638C267.217 14.741 263.105 12.9192 258.17 13.3252C254.006 13.6791 250.321 17.9265 250.758 20.2168C251.195 22.5071 254.693 23.4856 255.359 24.2768L252.476 26.3589C252.134 26.6054 251.846 26.9186 251.629 27.2794C251.411 27.6403 251.269 28.0414 251.211 28.4586C251.152 28.8758 251.179 29.3005 251.289 29.7072C251.399 30.1139 251.59 30.494 251.851 30.8249C253.069 32.3656 254.672 33.9479 255.599 35.1139C263.573 34.9057 269.476 31.8659 271.61 28.9406C270.808 25.2345 270.975 21.9657 269.122 18.3638Z" fill="white"/>
<path d="M265.209 20.6123C265.775 22.0642 265.898 23.6512 265.562 25.1729C265.227 26.6946 264.447 28.0826 263.323 29.1615C262.199 30.2404 260.78 30.9617 259.245 31.2343C257.711 31.5068 256.13 31.3184 254.703 30.6928C253.276 30.0673 252.066 29.0326 251.227 27.7196C250.388 26.4067 249.957 24.8744 249.988 23.3164C250.019 21.7584 250.512 20.2447 251.403 18.9666C252.295 17.6886 253.545 16.7035 254.997 16.1359C256.945 15.377 259.114 15.4222 261.029 16.2615C262.944 17.1008 264.447 18.6656 265.209 20.6123Z" fill="#263238"/>
<path d="M332.803 114.43C332.688 111.005 332.532 111.307 332.438 108.423C332.376 106.653 332.366 104.686 332.355 102.989C332.352 102.183 332.07 101.403 331.558 100.781C331.046 100.159 330.334 99.7325 329.544 99.5743C328.17 99.2932 326.786 99.0329 325.38 98.7414C323.579 98.3562 321.799 97.9398 320.04 97.4297C318.666 97.0341 317.312 96.5969 315.969 96.1076C314.626 95.6183 313.117 95.0666 311.722 94.4212C310.077 93.7237 308.453 92.9741 306.85 92.1934C305.049 91.3397 303.269 90.4444 301.489 89.5388C294.639 78.202 294.493 70.7274 287.143 61.9619L271.361 69.1034C271.361 69.1034 282.958 89.6741 290.849 98.3979C295.399 103.416 302.53 105.685 308.89 107.33C313.481 108.506 318.135 109.412 322.788 110.276C324.599 110.609 326.567 110.734 328.129 111.817C329.284 112.703 330.076 113.98 330.356 115.408C330.426 115.7 330.488 115.991 330.544 116.283C330.742 117.157 332.876 116.491 332.803 114.43Z" fill="#407BFF"/>
<path opacity="0.8" d="M332.803 114.43C332.688 111.005 332.532 111.307 332.438 108.423C332.376 106.653 332.366 104.686 332.355 102.989C332.352 102.183 332.07 101.403 331.558 100.781C331.046 100.159 330.334 99.7325 329.544 99.5743C328.17 99.2932 326.786 99.0329 325.38 98.7414C323.579 98.3562 321.799 97.9398 320.04 97.4297C318.666 97.0341 317.312 96.5969 315.969 96.1076C314.626 95.6183 313.117 95.0666 311.722 94.4212C310.077 93.7237 308.453 92.9741 306.85 92.1934C305.049 91.3397 303.269 90.4444 301.489 89.5388C294.639 78.202 294.493 70.7274 287.143 61.9619L271.361 69.1034C271.361 69.1034 282.958 89.6741 290.849 98.3979C295.399 103.416 302.53 105.685 308.89 107.33C313.481 108.506 318.135 109.412 322.788 110.276C324.599 110.609 326.567 110.734 328.129 111.817C329.284 112.703 330.076 113.98 330.356 115.408C330.426 115.7 330.488 115.991 330.544 116.283C330.742 117.157 332.876 116.491 332.803 114.43Z" fill="white"/>
<path opacity="0.3" d="M324.797 98.6061C324.172 98.4708 323.548 98.3355 322.913 98.1793C322.965 101.781 321.278 107.986 320.664 109.87L322.642 110.245C323.938 106.495 324.665 102.572 324.797 98.6061Z" fill="#407BFF"/>
<path opacity="0.3" d="M332.396 102.989C332.393 102.184 332.113 101.406 331.603 100.784C331.093 100.162 330.384 99.7347 329.596 99.5743L328.555 99.3765C328.722 100.56 329.328 101.637 330.252 102.395C330.846 102.945 331.558 103.351 332.334 103.582C332.396 103.395 332.396 103.187 332.396 102.989Z" fill="#407BFF"/>
<path d="M263.744 20.6748C264.16 22.2572 262.39 23.9124 260.985 22.5487C259.673 21.1423 258.238 19.8567 256.696 18.7073C255.249 17.8016 257.175 16.2192 259.455 16.8334C260.428 17.0778 261.326 17.5552 262.074 18.2245C262.821 18.8937 263.394 19.7347 263.744 20.6748Z" fill="white"/>
<path d="M263.855 70.9772C263.126 71.2479 264.458 72.4971 264.458 72.4971C264.458 72.4971 279.033 67.5106 287.882 62.3783C287.903 62.0676 287.85 61.7563 287.727 61.4702C287.604 61.1841 287.414 60.9316 287.174 60.7335C279.6 64.5859 271.815 68.006 263.855 70.9772Z" fill="#407BFF"/>
<path opacity="0.5" d="M263.855 70.9772C263.126 71.2479 264.458 72.4971 264.458 72.4971C264.458 72.4971 279.033 67.5106 287.882 62.3783C287.903 62.0676 287.85 61.7563 287.727 61.4702C287.604 61.1841 287.414 60.9316 287.174 60.7335C279.6 64.5859 271.815 68.006 263.855 70.9772Z" fill="white"/>
<path d="M274.58 27.9828C277.453 29.4403 280.149 30.9706 282.908 32.6675C284.251 33.5211 285.584 34.3852 286.906 35.3221C288.228 36.259 289.539 37.2167 290.862 38.2994L291.351 38.7054L291.965 39.2676C292.331 39.595 292.679 39.9426 293.006 40.3086C293.339 40.673 293.62 41.0269 293.891 41.3496C294.162 41.6723 294.453 42.0575 294.693 42.3906C295.663 43.729 296.559 45.1191 297.378 46.5548C298.992 49.3388 300.384 52.2453 301.543 55.2473C301.757 55.8145 301.768 56.4384 301.574 57.0128C301.38 57.5873 300.993 58.0768 300.479 58.3983C299.965 58.7197 299.356 58.8532 298.754 58.776C298.153 58.6988 297.597 58.4157 297.181 57.9748L297.129 57.9124C295.047 55.695 293.037 53.3631 291.018 51.1873C288.998 49.0116 286.947 46.8046 285.25 45.8364C282.887 44.3686 280.254 42.9008 277.641 41.4641L269.77 37.0918C268.55 36.4458 267.636 35.3414 267.23 34.0216C266.824 32.7018 266.959 31.2748 267.605 30.0545C268.251 28.8341 269.356 27.9204 270.675 27.5143C271.995 27.1082 273.422 27.2431 274.642 27.8891L274.58 27.9828Z" fill="#407BFF"/>
<path opacity="0.8" d="M274.58 27.9828C277.453 29.4403 280.149 30.9706 282.908 32.6675C284.251 33.5211 285.584 34.3852 286.906 35.3221C288.228 36.259 289.539 37.2167 290.862 38.2994L291.351 38.7054L291.965 39.2676C292.331 39.595 292.679 39.9426 293.006 40.3086C293.339 40.673 293.62 41.0269 293.891 41.3496C294.162 41.6723 294.453 42.0575 294.693 42.3906C295.663 43.729 296.559 45.1191 297.378 46.5548C298.992 49.3388 300.384 52.2453 301.543 55.2473C301.757 55.8145 301.768 56.4384 301.574 57.0128C301.38 57.5873 300.993 58.0768 300.479 58.3983C299.965 58.7197 299.356 58.8532 298.754 58.776C298.153 58.6988 297.597 58.4157 297.181 57.9748L297.129 57.9124C295.047 55.695 293.037 53.3631 291.018 51.1873C288.998 49.0116 286.947 46.8046 285.25 45.8364C282.887 44.3686 280.254 42.9008 277.641 41.4641L269.77 37.0918C268.55 36.4458 267.636 35.3414 267.23 34.0216C266.824 32.7018 266.959 31.2748 267.605 30.0545C268.251 28.8341 269.356 27.9204 270.675 27.5143C271.995 27.1082 273.422 27.2431 274.642 27.8891L274.58 27.9828Z" fill="white"/>
<path d="M304.008 60.442L303.124 58.2246C303.124 58.2246 302.634 55.393 300.875 54.6019L295.67 55.4243L295.847 55.8823C296.326 56.9234 295.961 58.8284 295.493 60.3483C295.024 61.8682 295.816 62.066 296.482 61.7641C296.857 61.5976 297.221 60.9209 297.617 60.2026C297.811 60.5645 298.03 60.9123 298.272 61.2436L299.553 63.003C299.82 63.3675 300.216 63.6174 300.66 63.7024C301.104 63.7873 301.564 63.7011 301.947 63.461L303.363 62.5553C303.694 62.3285 303.939 61.9958 304.056 61.6118C304.173 61.2278 304.157 60.8153 304.008 60.442Z" fill="#407BFF"/>
<path opacity="0.8" d="M304.008 60.442L303.124 58.2246C303.124 58.2246 302.634 55.393 300.875 54.6019L295.67 55.4243L295.847 55.8823C296.326 56.9234 295.961 58.8284 295.493 60.3483C295.024 61.8682 295.816 62.066 296.482 61.7641C296.857 61.5976 297.221 60.9209 297.617 60.2026C297.811 60.5645 298.03 60.9123 298.272 61.2436L299.553 63.003C299.82 63.3675 300.216 63.6174 300.66 63.7024C301.104 63.7873 301.564 63.7011 301.947 63.461L303.363 62.5553C303.694 62.3285 303.939 61.9958 304.056 61.6118C304.173 61.2278 304.157 60.8153 304.008 60.442Z" fill="white"/>
<path opacity="0.3" d="M270.186 39.9547L268.916 40.0588L261.119 58.8805C261.545 58.9112 261.974 58.8761 262.389 58.7764C262.389 58.7764 272.55 54.9871 275.621 53.5713C273.559 49.3135 270.186 39.9547 270.186 39.9547Z" fill="#407BFF"/>
<path d="M255.953 44.8891C256.901 49.8092 258.66 54.5375 261.158 58.8805C264.968 57.5688 271.319 55.0912 274.4 53.6754C272.329 49.2353 270.491 44.6903 268.893 40.0588C265.635 40.2774 258.483 43.0153 255.953 44.8891Z" fill="white"/>
<path opacity="0.3" d="M263.691 48.9595C263.539 49.4686 263.239 49.9211 262.829 50.2598C262.42 50.5985 261.919 50.8081 261.391 50.8622C260.862 50.9162 260.329 50.8123 259.86 50.5635C259.39 50.3147 259.005 49.9322 258.753 49.4645C258.501 48.9967 258.393 48.4647 258.444 47.9358C258.494 47.4068 258.7 46.9047 259.036 46.4929C259.372 46.0811 259.822 45.7782 260.33 45.6224C260.838 45.4666 261.381 45.465 261.89 45.6178C262.572 45.8225 263.144 46.2894 263.482 46.916C263.82 47.5426 263.895 48.2776 263.691 48.9595Z" fill="#407BFF"/>
<path opacity="0.6" d="M265.676 45.3784C265.636 45.5522 265.544 45.7096 265.412 45.8301C265.28 45.9505 265.115 46.0283 264.939 46.0533C264.762 46.0783 264.582 46.0493 264.422 45.9701C264.262 45.8909 264.13 45.7652 264.043 45.6096C263.955 45.4539 263.917 45.2754 263.933 45.0977C263.949 44.92 264.019 44.7513 264.132 44.6137C264.246 44.4761 264.399 44.3761 264.57 44.3268C264.742 44.2775 264.924 44.2812 265.093 44.3374C265.304 44.4048 265.482 44.5498 265.59 44.743C265.698 44.9362 265.729 45.1633 265.676 45.3784Z" fill="#407BFF"/>
<path opacity="0.6" d="M268.008 44.4727C267.984 44.5935 267.934 44.7078 267.863 44.8084C267.792 44.9089 267.7 44.9935 267.595 45.0567C267.489 45.12 267.371 45.1604 267.249 45.1754C267.127 45.1905 267.002 45.1798 266.885 45.1442C266.767 45.1085 266.657 45.0486 266.564 44.9683C266.471 44.888 266.395 44.789 266.342 44.6778C266.289 44.5666 266.26 44.4455 266.256 44.3223C266.253 44.1992 266.275 44.0767 266.322 43.9626C266.355 43.8524 266.41 43.7499 266.483 43.661C266.556 43.572 266.646 43.4983 266.747 43.4442C266.849 43.39 266.96 43.3564 267.074 43.3453C267.189 43.3343 267.305 43.3459 267.415 43.3796C267.637 43.4471 267.825 43.5997 267.936 43.8043C268.047 44.0089 268.073 44.2491 268.008 44.4727Z" fill="#407BFF"/>
<path opacity="0.5" d="M271.276 52.5823L261.647 56.3821L261.074 54.4874L270.693 50.6877L271.276 52.5823Z" fill="#407BFF"/>
<path opacity="0.2" d="M218.154 197.264C218.132 203.326 217.546 209.373 216.405 215.326C215.177 220.677 213.268 224.591 210.68 227.069C209.474 228.266 208.042 229.211 206.467 229.849C204.893 230.487 203.207 230.805 201.508 230.785C196.157 230.785 192.073 227.867 189.255 222.03C188.76 220.982 188.339 219.9 187.996 218.793C182.045 223.904 176.503 229.473 171.422 235.449L165.895 241.966C168.869 244.981 172.302 247.507 176.065 249.451C182.547 252.803 191.056 254.483 201.591 254.49C203.444 254.49 205.235 254.437 206.973 254.333C213.347 244.902 218.621 234.773 222.693 224.144L238.152 183.835L218.154 197.264Z" fill="black"/>
<path d="M78.791 252.262L97.009 270.48L148.019 222.415C130.436 215.701 96.249 234.762 78.791 252.262Z" fill="#263238"/>
<path d="M142.327 315.764C136.508 309.935 124.109 297.546 124.109 297.546L172.174 246.536C178.847 264.077 159.785 298.296 142.327 315.764Z" fill="#263238"/>
<path d="M212.052 200.939L231.925 162.619L193.605 182.513C181.297 188.896 169.932 196.954 159.834 206.457L94.5098 267.95L126.605 300.045L188.098 234.72C197.605 224.62 205.666 213.252 212.052 200.939Z" fill="#407BFF"/>
<path opacity="0.6" d="M212.052 200.939L231.925 162.619L193.605 182.513C181.297 188.896 169.932 196.954 159.834 206.457L94.5098 267.95L126.605 300.045L188.098 234.72C197.605 224.62 205.666 213.252 212.052 200.939Z" fill="black"/>
<path d="M171.246 236.73C178.662 236.73 184.675 230.717 184.675 223.3C184.675 215.884 178.662 209.871 171.246 209.871C163.829 209.871 157.816 215.884 157.816 223.3C157.816 230.717 163.829 236.73 171.246 236.73Z" fill="white"/>
<path d="M171.245 231.93C176.012 231.93 179.875 228.067 179.875 223.3C179.875 218.534 176.012 214.67 171.245 214.67C166.479 214.67 162.615 218.534 162.615 223.3C162.615 228.067 166.479 231.93 171.245 231.93Z" fill="#C2D5FF"/>
<path opacity="0.3" d="M137.464 288.51L106.035 257.082L131.769 232.867L161.678 262.786L137.464 288.51Z" fill="#407BFF"/>
<path d="M85.902 281.015C62.3748 282.92 54.5775 297.984 51.9125 318.003C50.5592 328.215 49.9554 338.552 41.3877 344.528C40.8723 344.878 40.4842 345.386 40.2816 345.975C40.079 346.565 40.0728 347.204 40.2639 347.797C40.455 348.39 40.8331 348.906 41.3416 349.266C41.8501 349.626 42.4616 349.812 43.0846 349.796C74.6693 348.807 89.3999 333.347 91.2529 326.893C90.7665 330.267 89.8968 333.575 88.6608 336.751C88.4335 337.312 88.389 337.93 88.5336 338.517C88.6782 339.105 89.0045 339.632 89.4659 340.023C89.9274 340.414 90.5005 340.649 91.1036 340.695C91.7067 340.742 92.3091 340.597 92.8249 340.281C101.684 334.732 112.802 324.509 113.541 307.925C107.024 298.692 85.902 281.015 85.902 281.015Z" fill="#407BFF"/>
<path opacity="0.2" d="M85.902 281.015C62.3748 282.92 54.5775 297.984 51.9125 318.003C50.5592 328.215 49.9554 338.552 41.3877 344.528C40.8723 344.878 40.4842 345.386 40.2816 345.975C40.079 346.565 40.0728 347.204 40.2639 347.797C40.455 348.39 40.8331 348.906 41.3416 349.266C41.8501 349.626 42.4616 349.812 43.0846 349.796C74.6693 348.807 89.3999 333.347 91.2529 326.893C90.7665 330.267 89.8968 333.575 88.6608 336.751C88.4335 337.312 88.389 337.93 88.5336 338.517C88.6782 339.105 89.0045 339.632 89.4659 340.023C89.9274 340.414 90.5005 340.649 91.1036 340.695C91.7067 340.742 92.3091 340.597 92.8249 340.281C101.684 334.732 112.802 324.509 113.541 307.925C107.024 298.692 85.902 281.015 85.902 281.015Z" fill="white"/>
<path d="M117.195 315.036L79.5098 277.35L99.5808 273.009L121.536 294.965L117.195 315.036Z" fill="#407BFF"/>
</svg>
