<svg width="32" height="32" viewBox="0 0 32 32" fill="none" xmlns="http://www.w3.org/2000/svg">
<path d="M25.3333 9.33333H6.66667C5.19391 9.33333 4 10.5272 4 12V24C4 25.4728 5.19391 26.6667 6.66667 26.6667H25.3333C26.8061 26.6667 28 25.4728 28 24V12C28 10.5272 26.8061 9.33333 25.3333 9.33333Z" stroke="black" stroke-width="2" stroke-linecap="round" stroke-linejoin="round"/>
<path d="M10.6667 9.33333V6.66667C10.6667 5.95942 10.9476 5.28115 11.4477 4.78105C11.9478 4.28095 12.6261 4 13.3334 4H18.6667C19.3739 4 20.0522 4.28095 20.5523 4.78105C21.0524 5.28115 21.3334 5.95942 21.3334 6.66667V9.33333" stroke="black" stroke-width="2" stroke-linecap="round" stroke-linejoin="round"/>
<path d="M16 16V16.0133" stroke="black" stroke-width="2" stroke-linecap="round" stroke-linejoin="round"/>
<path d="M4 17.3333C7.72211 19.2089 11.832 20.1859 16 20.1859C20.168 20.1859 24.2779 19.2089 28 17.3333" stroke="black" stroke-width="2" stroke-linecap="round" stroke-linejoin="round"/>
</svg>
