<svg width="32" height="32" viewBox="0 0 32 32" fill="none" xmlns="http://www.w3.org/2000/svg">
<path d="M10.6667 17.3333V7.33333C10.6667 6.8029 10.8774 6.29419 11.2525 5.91912C11.6275 5.54405 12.1363 5.33333 12.6667 5.33333C13.1971 5.33333 13.7058 5.54405 14.0809 5.91912C14.456 6.29419 14.6667 6.8029 14.6667 7.33333V16" stroke="black" stroke-width="2" stroke-linecap="round" stroke-linejoin="round"/>
<path d="M14.6667 7.33333V4.66667C14.6667 4.40402 14.7184 4.14395 14.8189 3.9013C14.9194 3.65865 15.0668 3.43817 15.2525 3.25245C15.4382 3.06674 15.6587 2.91942 15.9013 2.81891C16.144 2.7184 16.404 2.66667 16.6667 2.66667C16.9293 2.66667 17.1894 2.7184 17.4321 2.81891C17.6747 2.91942 17.8952 3.06674 18.0809 3.25245C18.2666 3.43817 18.4139 3.65865 18.5144 3.9013C18.615 4.14395 18.6667 4.40402 18.6667 4.66667V16" stroke="black" stroke-width="2" stroke-linecap="round" stroke-linejoin="round"/>
<path d="M18.6667 7.33333C18.6667 6.8029 18.8774 6.29419 19.2525 5.91912C19.6275 5.54405 20.1363 5.33333 20.6667 5.33333C21.1971 5.33333 21.7058 5.54405 22.0809 5.91912C22.456 6.29419 22.6667 6.8029 22.6667 7.33333V16" stroke="black" stroke-width="2" stroke-linecap="round" stroke-linejoin="round"/>
<path d="M22.6667 10C22.6667 9.46957 22.8774 8.96086 23.2525 8.58579C23.6275 8.21071 24.1362 8 24.6667 8C25.1971 8 25.7058 8.21071 26.0809 8.58579C26.456 8.96086 26.6667 9.46957 26.6667 10V21.3333C26.6667 23.4551 25.8238 25.4899 24.3235 26.9902C22.8232 28.4905 20.7884 29.3333 18.6667 29.3333H16H16.2773C14.9524 29.3336 13.6482 29.0047 12.4818 28.3764C11.3154 27.748 10.3234 26.8398 9.59467 25.7333C9.50721 25.6002 9.4201 25.4669 9.33333 25.3333C8.91733 24.6947 7.45733 22.1493 4.952 17.696C4.6966 17.242 4.62838 16.7064 4.76184 16.2029C4.89531 15.6994 5.21993 15.2678 5.66667 15C6.1425 14.7145 6.7001 14.5962 7.25088 14.6638C7.80166 14.7314 8.31405 14.9812 8.70667 15.3733L10.6667 17.3333" stroke="black" stroke-width="2" stroke-linecap="round" stroke-linejoin="round"/>
</svg>
