<svg width="32" height="32" viewBox="0 0 32 32" fill="none" xmlns="http://www.w3.org/2000/svg">
<path d="M26 16.7627L16 26.6667L5.99999 16.7627C5.3404 16.1208 4.82085 15.3494 4.47406 14.4969C4.12727 13.6443 3.96074 12.7293 3.98498 11.8093C4.00921 10.8892 4.22368 9.98419 4.61487 9.15112C5.00606 8.31806 5.56551 7.57501 6.25798 6.96878C6.95044 6.36255 7.76093 5.90626 8.63841 5.62865C9.51588 5.35104 10.4413 5.25812 11.3565 5.35574C12.2716 5.45337 13.1567 5.73942 13.9558 6.19588C14.755 6.65235 15.451 7.26934 16 8.00801C16.5514 7.2747 17.2482 6.6631 18.0468 6.21148C18.8454 5.75986 19.7287 5.47794 20.6412 5.38337C21.5538 5.28879 22.4761 5.3836 23.3504 5.66186C24.2246 5.94012 25.032 6.39584 25.7221 7.00049C26.4121 7.60515 26.9699 8.34572 27.3606 9.17586C27.7512 10.006 27.9663 10.9079 27.9924 11.825C28.0185 12.7421 27.855 13.6547 27.5122 14.5057C27.1693 15.3567 26.6545 16.1278 26 16.7707" stroke="black" stroke-width="2" stroke-linecap="round" stroke-linejoin="round"/>
<path d="M16 8L11.6093 12.3907C11.3594 12.6407 11.2189 12.9798 11.2189 13.3333C11.2189 13.6869 11.3594 14.026 11.6093 14.276L12.3333 15C13.2533 15.92 14.7467 15.92 15.6667 15L17 13.6667C17.7956 12.871 18.8748 12.424 20 12.424C21.1252 12.424 22.2043 12.871 23 13.6667L26 16.6667" stroke="black" stroke-width="2" stroke-linecap="round" stroke-linejoin="round"/>
<path d="M16.6667 20.6667L19.3333 23.3333" stroke="black" stroke-width="2" stroke-linecap="round" stroke-linejoin="round"/>
<path d="M20 17.3333L22.6667 20" stroke="black" stroke-width="2" stroke-linecap="round" stroke-linejoin="round"/>
</svg>
