<svg width="14" height="14" viewBox="0 0 14 14" fill="none" xmlns="http://www.w3.org/2000/svg">
<path d="M7 0C5.14348 0 3.36301 0.737498 2.05025 2.05025C0.737498 3.36301 0 5.14348 0 7C0 8.85651 0.737498 10.637 2.05025 11.9497C3.36301 13.2625 5.14348 14 7 14C8.85651 14 10.637 13.2625 11.9497 11.9497C13.2625 10.637 14 8.85651 14 7C14 5.14348 13.2625 3.36301 11.9497 2.05025C10.637 0.737498 8.85651 0 7 0Z" fill="#29B6F6"/>
<path d="M10.4825 3.85L9.17141 10.5441C9.17141 10.5441 9.11506 10.85 8.73566 10.85C8.53406 10.85 8.43011 10.7541 8.43011 10.7541L5.59021 8.39755L4.20071 7.6972L2.41746 7.22295C2.41746 7.22295 2.10001 7.13125 2.10001 6.86875C2.10001 6.65 2.42656 6.5457 2.42656 6.5457L9.88716 3.5819C9.88681 3.58155 10.115 3.49965 10.2813 3.5C10.3835 3.5 10.5 3.54375 10.5 3.675C10.5 3.7625 10.4825 3.85 10.4825 3.85Z" fill="white"/>
<path d="M6.65028 9.27674L5.45118 10.4576C5.45118 10.4576 5.39903 10.4979 5.32938 10.4996C5.30523 10.5003 5.27933 10.4965 5.25273 10.4846L5.59013 8.39684L6.65028 9.27674Z" fill="#B0BEC5"/>
<path d="M9.06395 4.96856C9.0048 4.89156 8.8956 4.87756 8.8186 4.93601L4.2 7.69996C4.2 7.69996 4.9371 9.76216 5.04945 10.1192C5.16215 10.4765 5.25245 10.4849 5.25245 10.4849L5.58985 8.39716L9.03105 5.21356C9.10805 5.15511 9.1224 5.04556 9.06395 4.96856Z" fill="#CFD8DC"/>
</svg>
