<svg width="32" height="32" viewBox="0 0 32 32" fill="none" xmlns="http://www.w3.org/2000/svg">
<path d="M6.66667 5.33333H12L14.6667 12L11.3333 14C12.7613 16.8954 15.1046 19.2387 18 20.6667L20 17.3333L26.6667 20V25.3333C26.6667 26.0406 26.3857 26.7189 25.8856 27.2189C25.3855 27.719 24.7072 28 24 28C18.799 27.6839 13.8935 25.4753 10.2091 21.7909C6.52467 18.1065 4.31607 13.201 4 8C4 7.29275 4.28095 6.61448 4.78105 6.11438C5.28115 5.61428 5.95942 5.33333 6.66667 5.33333" stroke="black" stroke-width="2" stroke-linecap="round" stroke-linejoin="round"/>
<path d="M20 9.33333C20.7072 9.33333 21.3855 9.61428 21.8856 10.1144C22.3857 10.6145 22.6667 11.2928 22.6667 12" stroke="black" stroke-width="2" stroke-linecap="round" stroke-linejoin="round"/>
<path d="M20 4C22.1217 4 24.1566 4.84286 25.6569 6.34315C27.1571 7.84344 28 9.87827 28 12" stroke="black" stroke-width="2" stroke-linecap="round" stroke-linejoin="round"/>
</svg>
