<svg width="14" height="14" viewBox="0 0 14 14" fill="none" xmlns="http://www.w3.org/2000/svg">
<path fill-rule="evenodd" clip-rule="evenodd" d="M11.9512 2.0519C10.6294 0.729208 8.87248 0.000443557 7.00244 0C3.14172 0 0.00177463 3.13861 3.98413e-07 6.99667C-0.000443159 8.31892 0.369484 9.60612 1.0703 10.7208L1.23708 10.9856L0.529608 13.5675L3.17898 12.8729L3.43491 13.0246C4.5092 13.6625 5.74141 13.9996 6.99756 14H7.00022C10.8583 14 13.9982 10.8609 13.9996 7.00244C14 5.13284 13.273 3.37458 11.9512 2.0519Z" fill="#40C351"/>
<path fill-rule="evenodd" clip-rule="evenodd" d="M4.89466 3.47695C4.73719 3.12654 4.5713 3.11944 4.42094 3.11323C4.29807 3.10791 4.15791 3.10835 4.01774 3.10835C3.87758 3.10835 3.64959 3.16113 3.45664 3.37182C3.2637 3.58251 2.71989 4.09127 2.71989 5.12654C2.71989 6.1618 3.47394 7.16246 3.57907 7.30263C3.68419 7.44279 5.03482 9.6353 7.17365 10.4789C8.95099 11.1798 9.31293 11.0405 9.69883 11.0054C10.0847 10.9704 10.9439 10.4967 11.1191 10.0052C11.2943 9.51376 11.2943 9.09283 11.242 9.005C11.1892 8.91718 11.049 8.86484 10.8388 8.75927C10.6285 8.6537 9.5937 8.14494 9.40075 8.07486C9.20781 8.00478 9.06764 7.96974 8.92703 8.18043C8.78687 8.39067 8.38368 8.86484 8.26081 9.005C8.13795 9.14561 8.01508 9.16335 7.80484 9.05779C7.59459 8.95222 6.91683 8.73044 6.11266 8.01365C5.48725 7.4561 5.06498 6.76726 4.94212 6.55657C4.81925 6.34632 4.92881 6.23233 5.03438 6.1272C5.12885 6.03272 5.24462 5.88147 5.35019 5.75861C5.45531 5.63574 5.49035 5.54792 5.56044 5.40775C5.63052 5.26714 5.59548 5.14428 5.54269 5.03916C5.4908 4.93359 5.08184 3.893 4.89466 3.47695Z" fill="white"/>
</svg>
